# xmcd
#
# Track frame offsets: 
#        183
#        15455
#        31840
#        46648
#        69183
#        85388
#        107368
#        136255
#        150783
#        167145
#        192565
#        208643
#        227543
#        245480
#        260133
#        291118
#        303068
#        319103
#        332070
#        349150
#
# Disc length: 4772 seconds
#
# Revision: 1
# Processed by: cddbd v1.5.1PL2 Copyright (c) Steve Scherf et al.
# Submitted via: ExactAudioCopy v0.95b3
#
DISCID=0512a214
DTITLE=Sally Oldfield - Super 20
DYEAR=1900
DGENRE=Pop
TTITLE0=Mirrors
TTITLE1=Morning of My Life
TTITLE2=Mandala
TTITLE3=Celebration
TTITLE4=The Sun in My Eyes
TTITLE5=Woman of the Night
TTITLE6=Water Bearer
TTITLE7=Song of the Lamb
TTITLE8=You Set My Gypsy Blood Free
TTITLE9=Path With A Heart
TTITLE10=Weaver
TTITLE11=Playin in the Flame
TTITLE12=River of My Childhood
TTITLE13=Song of the Healer
TTITLE14=Strange Day in Berlin
TTITLE15=Fire and Honey
TTITLE16=The Boulevard Song
TTITLE17=Let It All Go
TTITLE18=Man Child
TTITLE19=Land of the Sun
EXTD=
EXTT0=
EXTT1=
EXTT2=
EXTT3=
EXTT4=
EXTT5=
EXTT6=
EXTT7=
EXTT8=
EXTT9=
EXTT10=
EXTT11=
EXTT12=
EXTT13=
EXTT14=
EXTT15=
EXTT16=
EXTT17=
EXTT18=
EXTT19=
PLAYORDER=
